<mxfile host="app.diagrams.net" agent="Mozilla/5.0 (Macintosh; Intel Mac OS X 10_15_7) AppleWebKit/537.36 (KHTML, like Gecko) Chrome/128.0.0.0 Safari/537.36" version="24.7.7">
  <diagram name="Page-1" id="a5Ny3TUga7ivqHgs4UYP">
    <mxGraphModel dx="984" dy="659" grid="1" gridSize="10" guides="1" tooltips="1" connect="1" arrows="1" fold="1" page="1" pageScale="1" pageWidth="827" pageHeight="1169" math="0" shadow="0">
      <root>
        <mxCell id="0" />
        <mxCell id="1" parent="0" />
        <mxCell id="aycFulqMbjrJucjpZfGT-3" style="edgeStyle=orthogonalEdgeStyle;rounded=0;orthogonalLoop=1;jettySize=auto;html=1;exitX=1;exitY=0.5;exitDx=0;exitDy=0;entryX=0;entryY=0.5;entryDx=0;entryDy=0;endArrow=none;endFill=0;" edge="1" parent="1" source="aycFulqMbjrJucjpZfGT-1" target="aycFulqMbjrJucjpZfGT-2">
          <mxGeometry relative="1" as="geometry" />
        </mxCell>
        <mxCell id="aycFulqMbjrJucjpZfGT-1" value="User" style="whiteSpace=wrap;html=1;aspect=fixed;" vertex="1" parent="1">
          <mxGeometry x="70" y="130" width="80" height="80" as="geometry" />
        </mxCell>
        <mxCell id="aycFulqMbjrJucjpZfGT-26" style="edgeStyle=orthogonalEdgeStyle;rounded=0;orthogonalLoop=1;jettySize=auto;html=1;exitX=0.75;exitY=0;exitDx=0;exitDy=0;entryX=0;entryY=0.5;entryDx=0;entryDy=0;endArrow=none;endFill=0;" edge="1" parent="1" source="aycFulqMbjrJucjpZfGT-2" target="aycFulqMbjrJucjpZfGT-25">
          <mxGeometry relative="1" as="geometry" />
        </mxCell>
        <mxCell id="aycFulqMbjrJucjpZfGT-2" value="Profil" style="whiteSpace=wrap;html=1;aspect=fixed;" vertex="1" parent="1">
          <mxGeometry x="270" y="130" width="80" height="80" as="geometry" />
        </mxCell>
        <mxCell id="aycFulqMbjrJucjpZfGT-4" value="n" style="text;html=1;align=center;verticalAlign=middle;resizable=0;points=[];autosize=1;strokeColor=none;fillColor=none;" vertex="1" parent="1">
          <mxGeometry x="230" y="140" width="30" height="30" as="geometry" />
        </mxCell>
        <mxCell id="aycFulqMbjrJucjpZfGT-5" value="n" style="text;html=1;align=center;verticalAlign=middle;resizable=0;points=[];autosize=1;strokeColor=none;fillColor=none;" vertex="1" parent="1">
          <mxGeometry x="150" y="140" width="30" height="30" as="geometry" />
        </mxCell>
        <mxCell id="aycFulqMbjrJucjpZfGT-30" style="edgeStyle=orthogonalEdgeStyle;rounded=0;orthogonalLoop=1;jettySize=auto;html=1;exitX=0.5;exitY=1;exitDx=0;exitDy=0;endArrow=none;endFill=0;" edge="1" parent="1" source="aycFulqMbjrJucjpZfGT-6" target="aycFulqMbjrJucjpZfGT-29">
          <mxGeometry relative="1" as="geometry" />
        </mxCell>
        <mxCell id="aycFulqMbjrJucjpZfGT-6" value="Projet" style="whiteSpace=wrap;html=1;aspect=fixed;" vertex="1" parent="1">
          <mxGeometry x="70" y="334" width="80" height="80" as="geometry" />
        </mxCell>
        <mxCell id="aycFulqMbjrJucjpZfGT-7" style="edgeStyle=orthogonalEdgeStyle;rounded=0;orthogonalLoop=1;jettySize=auto;html=1;exitX=0.5;exitY=1;exitDx=0;exitDy=0;entryX=0.5;entryY=0;entryDx=0;entryDy=0;endArrow=none;endFill=0;" edge="1" parent="1" source="aycFulqMbjrJucjpZfGT-1" target="aycFulqMbjrJucjpZfGT-6">
          <mxGeometry relative="1" as="geometry">
            <mxPoint x="105" y="209" as="sourcePoint" />
            <mxPoint x="225" y="209" as="targetPoint" />
          </mxGeometry>
        </mxCell>
        <mxCell id="aycFulqMbjrJucjpZfGT-9" style="edgeStyle=orthogonalEdgeStyle;rounded=0;orthogonalLoop=1;jettySize=auto;html=1;exitX=0;exitY=0.5;exitDx=0;exitDy=0;entryX=1;entryY=0.5;entryDx=0;entryDy=0;endArrow=none;endFill=0;" edge="1" parent="1" source="aycFulqMbjrJucjpZfGT-8" target="aycFulqMbjrJucjpZfGT-6">
          <mxGeometry relative="1" as="geometry" />
        </mxCell>
        <mxCell id="aycFulqMbjrJucjpZfGT-8" value="Sous-domaine" style="whiteSpace=wrap;html=1;aspect=fixed;" vertex="1" parent="1">
          <mxGeometry x="300" y="334" width="80" height="80" as="geometry" />
        </mxCell>
        <mxCell id="aycFulqMbjrJucjpZfGT-11" style="edgeStyle=orthogonalEdgeStyle;rounded=0;orthogonalLoop=1;jettySize=auto;html=1;exitX=0.75;exitY=1;exitDx=0;exitDy=0;entryX=1;entryY=0.5;entryDx=0;entryDy=0;endArrow=none;endFill=0;" edge="1" parent="1" source="aycFulqMbjrJucjpZfGT-8" target="aycFulqMbjrJucjpZfGT-8">
          <mxGeometry relative="1" as="geometry">
            <Array as="points">
              <mxPoint x="360" y="440" />
              <mxPoint x="420" y="440" />
              <mxPoint x="420" y="380" />
            </Array>
          </mxGeometry>
        </mxCell>
        <mxCell id="aycFulqMbjrJucjpZfGT-12" value="n" style="text;html=1;align=center;verticalAlign=middle;resizable=0;points=[];autosize=1;strokeColor=none;fillColor=none;" vertex="1" parent="1">
          <mxGeometry x="80" y="300" width="30" height="30" as="geometry" />
        </mxCell>
        <mxCell id="aycFulqMbjrJucjpZfGT-13" value="n" style="text;html=1;align=center;verticalAlign=middle;resizable=0;points=[];autosize=1;strokeColor=none;fillColor=none;" vertex="1" parent="1">
          <mxGeometry x="80" y="210" width="30" height="30" as="geometry" />
        </mxCell>
        <mxCell id="aycFulqMbjrJucjpZfGT-14" value="1" style="text;html=1;align=center;verticalAlign=middle;resizable=0;points=[];autosize=1;strokeColor=none;fillColor=none;" vertex="1" parent="1">
          <mxGeometry x="260" y="350" width="30" height="30" as="geometry" />
        </mxCell>
        <mxCell id="aycFulqMbjrJucjpZfGT-15" value="n" style="text;html=1;align=center;verticalAlign=middle;resizable=0;points=[];autosize=1;strokeColor=none;fillColor=none;" vertex="1" parent="1">
          <mxGeometry x="150" y="350" width="30" height="30" as="geometry" />
        </mxCell>
        <mxCell id="aycFulqMbjrJucjpZfGT-16" value="actions" style="whiteSpace=wrap;html=1;aspect=fixed;" vertex="1" parent="1">
          <mxGeometry x="580" y="520" width="80" height="80" as="geometry" />
        </mxCell>
        <mxCell id="aycFulqMbjrJucjpZfGT-19" value="n" style="text;html=1;align=center;verticalAlign=middle;resizable=0;points=[];autosize=1;strokeColor=none;fillColor=none;" vertex="1" parent="1">
          <mxGeometry x="280" y="100" width="30" height="30" as="geometry" />
        </mxCell>
        <mxCell id="aycFulqMbjrJucjpZfGT-22" style="edgeStyle=orthogonalEdgeStyle;rounded=0;orthogonalLoop=1;jettySize=auto;html=1;exitX=1;exitY=0.5;exitDx=0;exitDy=0;entryX=0;entryY=0.5;entryDx=0;entryDy=0;endArrow=none;endFill=0;" edge="1" parent="1" source="aycFulqMbjrJucjpZfGT-20" target="aycFulqMbjrJucjpZfGT-16">
          <mxGeometry relative="1" as="geometry" />
        </mxCell>
        <mxCell id="aycFulqMbjrJucjpZfGT-20" value="Workflow" style="whiteSpace=wrap;html=1;aspect=fixed;" vertex="1" parent="1">
          <mxGeometry x="320" y="520" width="80" height="80" as="geometry" />
        </mxCell>
        <mxCell id="aycFulqMbjrJucjpZfGT-25" value="permissions" style="whiteSpace=wrap;html=1;aspect=fixed;" vertex="1" parent="1">
          <mxGeometry x="380" width="80" height="80" as="geometry" />
        </mxCell>
        <mxCell id="aycFulqMbjrJucjpZfGT-36" style="edgeStyle=orthogonalEdgeStyle;rounded=0;orthogonalLoop=1;jettySize=auto;html=1;exitX=1;exitY=0.5;exitDx=0;exitDy=0;entryX=0;entryY=0.5;entryDx=0;entryDy=0;endArrow=none;endFill=0;" edge="1" parent="1" source="aycFulqMbjrJucjpZfGT-29" target="aycFulqMbjrJucjpZfGT-20">
          <mxGeometry relative="1" as="geometry" />
        </mxCell>
        <mxCell id="aycFulqMbjrJucjpZfGT-39" style="edgeStyle=orthogonalEdgeStyle;rounded=0;orthogonalLoop=1;jettySize=auto;html=1;exitX=0.5;exitY=1;exitDx=0;exitDy=0;entryX=0.5;entryY=0;entryDx=0;entryDy=0;endArrow=none;endFill=0;" edge="1" parent="1" source="aycFulqMbjrJucjpZfGT-29" target="aycFulqMbjrJucjpZfGT-38">
          <mxGeometry relative="1" as="geometry" />
        </mxCell>
        <mxCell id="aycFulqMbjrJucjpZfGT-29" value="Demande" style="whiteSpace=wrap;html=1;aspect=fixed;" vertex="1" parent="1">
          <mxGeometry x="70" y="520" width="80" height="80" as="geometry" />
        </mxCell>
        <mxCell id="aycFulqMbjrJucjpZfGT-37" value="1" style="text;html=1;align=center;verticalAlign=middle;resizable=0;points=[];autosize=1;strokeColor=none;fillColor=none;" vertex="1" parent="1">
          <mxGeometry x="290" y="530" width="30" height="30" as="geometry" />
        </mxCell>
        <mxCell id="aycFulqMbjrJucjpZfGT-38" value="Historique" style="whiteSpace=wrap;html=1;aspect=fixed;" vertex="1" parent="1">
          <mxGeometry x="70" y="710" width="80" height="80" as="geometry" />
        </mxCell>
      </root>
    </mxGraphModel>
  </diagram>
</mxfile>
